<svg xmlns="http://www.w3.org/2000/svg" width="110" height="100">
  <path fill="none" pointer-events="none" d="M0 0h110v100H0z"/>
  <defs>
    <clipPath id="a">
      <path d="M0 0h612v442H0V0z"/>
    </clipPath>
  </defs>
  <g clip-path="url(#a)" transform="matrix(.817 0 0 .817 -199.235 -98.683)">
    <clipPath id="b">
      <path d="M0 0h612v442H0V0z" fill="#FFF"/>
    </clipPath>
    <g clip-path="url(#b)">
      <path d="M303.707 236.921c-8.583 0-15.566-6.894-15.566-15.368v-11.5c0-8.41 5.97-14.284 14.517-14.284l39.721-.05c4.788 0 8.68-3.605 8.68-8.035 0-4.431-3.892-8.035-8.675-8.035h-78.705c-8.418 0-15.267-6.849-15.267-15.266 0-8.418 6.849-15.267 15.267-15.267h46.803l49.539.161c4.199 0 7.625-3.425 7.625-7.636v-.506c0-4.21-3.426-7.636-7.637-7.636h-63.573c-.655 0-1.208.553-1.208 1.208v6.903h-7.232v-6.903c0-4.653 3.787-8.439 8.44-8.439h63.573c8.198 0 14.868 6.669 14.868 14.867v.506c0 8.198-6.67 14.868-14.868 14.868l-49.539-.161h-46.791c-4.431 0-8.035 3.604-8.035 8.035 0 4.43 3.604 8.034 8.035 8.034h78.705c8.77 0 15.906 6.849 15.906 15.267s-7.136 15.266-15.906 15.266l-39.722.05c-4.566 0-7.289 2.637-7.289 7.053v11.5c0 4.487 3.739 8.137 8.334 8.137 4.596 0 8.335-3.65 8.335-8.137v-11.5h7.231v11.5c0 8.474-6.983 15.368-15.566 15.368z" fill="#0D0D0D"/>
    </g>
  </g>
</svg>
